<svg height="16" viewBox="0 0 16 16" fill="none" xmlns="http://www.w3.org/2000/svg" class="fera-validation-icon fera-validation-icon--sm">
    <rect class="fera-validation-icon-stroke" width="16" height="16" rx="8" fill="white"></rect>
    <path class="fera-validation-icon-bg" fill-rule="evenodd" clip-rule="evenodd" d="M14.3169 9.64885L13.9731 9.99262C13.7546 10.2113 13.6318 10.5079 13.6317 10.8171V11.3C13.6317 11.9189 13.3859 12.5123 12.9483 12.9499C12.5107 13.3875 11.9172 13.6333 11.2984 13.6333H10.8154C10.5062 13.6334 10.2097 13.7562 9.99101 13.9748L9.64724 14.3185C9.20974 14.7555 8.6167 15.0009 7.99838 15.0009C7.38006 15.0009 6.78702 14.7555 6.34953 14.3185L6.00576 13.9748C5.78705 13.7562 5.49053 13.6334 5.18133 13.6333H4.69989C4.08107 13.6333 3.48759 13.3875 3.05001 12.9499C2.61244 12.5123 2.36661 11.9189 2.36661 11.3V10.8171C2.36654 10.5079 2.24374 10.2113 2.02517 9.99262L1.6814 9.64885C1.24445 9.21136 0.999023 8.61832 0.999023 8C0.999023 7.38168 1.24445 6.78864 1.6814 6.35114L2.02517 6.00737C2.24374 5.78867 2.36654 5.49214 2.36661 5.18295V4.69996C2.36661 4.08113 2.61244 3.48765 3.05001 3.05007C3.48759 2.6125 4.08107 2.36667 4.69989 2.36667H5.18288C5.49208 2.3666 5.78861 2.2438 6.00731 2.02523L6.35108 1.68146C6.78857 1.24451 7.38161 0.999084 7.99994 0.999084C8.61826 0.999084 9.2113 1.24451 9.64879 1.68146L9.99256 2.02523C10.2113 2.2438 10.5078 2.3666 10.817 2.36667H11.3C11.9188 2.36667 12.5123 2.6125 12.9499 3.05007C13.3874 3.48765 13.6333 4.08113 13.6333 4.69996V5.18295C13.6333 5.49214 13.7561 5.78867 13.9747 6.00737L14.3185 6.35114C14.7552 6.78884 15.0004 7.382 15.0001 8.00032C14.9998 8.61864 14.7541 9.21157 14.3169 9.64885Z" fill="#171717"></path>
    <path class="fera-validation-icon-check" fill-rule="evenodd" clip-rule="evenodd" d="M5.14457 8.51451C5.01504 8.37549 4.94452 8.19163 4.94787 8.00165C4.95122 7.81167 5.02818 7.6304 5.16254 7.49605C5.2969 7.36169 5.47816 7.28473 5.66814 7.28138C5.85812 7.27802 6.04198 7.34854 6.181 7.47808L6.18483 7.48165L7.22203 8.51827L9.81856 5.92249C9.95757 5.79295 10.1415 5.7225 10.3315 5.72585C10.5215 5.7292 10.7027 5.80617 10.8371 5.94052C10.9714 6.07488 11.0484 6.25614 11.0518 6.44612C11.0551 6.6361 10.9846 6.81997 10.8551 6.95898L10.8514 6.96286L7.74075 10.0734C7.67285 10.1418 7.59182 10.1963 7.50282 10.2332C7.41383 10.2701 7.3184 10.2891 7.22205 10.2889C7.1257 10.2891 7.03027 10.2701 6.94127 10.2332C6.85227 10.1963 6.77149 10.142 6.70359 10.0737L5.14457 8.51451Z" fill="white"></path>
</svg>