<svg version="1.1" id="Layer_1" xmlns="http://www.w3.org/2000/svg" x="0" y="0" width="270" height="56" viewBox="10 10 398 83" xml:space="preserve"><style>.st0{fill:#d06706}</style><path d="M139.7 48c0 .5-.1.9-.1 1.4h-25.8c.7 6.5 5.6 10.7 12.1 10.7 4.7 0 8.2-2.2 9.9-5.2l2.5 1.5c-2.3 3.9-6.8 6.5-12.4 6.5-8.8 0-15-6.3-15-15s6.1-15 14.8-15 14 7.2 14 15.1zm-25.9-1.5h22.9c-.6-7-5.5-10.9-11.1-10.9-6.4 0-11.2 4.5-11.8 10.9zM164.9 62.2l-9.6-12.5-9.6 12.5h-3.5l11.4-14.8-10.7-14h3.5l9 11.7 9-11.7h3.4l-10.7 13.9 11.4 14.8h-3.6v.1zM170.5 47.9c0-8.5 6.7-15 15-15s14.9 6.5 14.9 15-6.7 15-14.9 15-15-6.5-15-15zm27 0c0-6.8-5.2-12.2-12-12.2s-12.1 5.4-12.1 12.2 5.3 12.2 12.1 12.2 12-5.4 12-12.2zM212.8 36.3V55c0 5.1 2.7 5.2 8.5 4.6v2.6c-7.5 1.1-11.4-.7-11.4-7.2V36.3h-6.3v-2.8h6.3v-7.2l2.9-.9v8h8.5v2.8l-8.5.1zM227.3 24.2c0-1.2 1-2.2 2.3-2.2s2.3 1 2.3 2.2-1 2.3-2.3 2.3-2.3-1-2.3-2.3zm.8 9.3h2.9v28.7h-2.9V33.5zM237.8 47.9c0-8.5 6.4-15 15-15 5.6 0 10.4 2.9 12.4 7.4l-2.3 1.4c-1.6-3.6-5.5-6-10.1-6-6.9 0-12.1 5.4-12.1 12.2s5.2 12.2 12.1 12.2c4.6 0 8.4-2.4 10.3-6l2.4 1.4c-2.3 4.4-7.1 7.3-12.7 7.3-8.6.1-15-6.4-15-14.9zM286.1 24.2c0-1.2 1-2.2 2.3-2.2s2.3 1 2.3 2.2-1 2.3-2.3 2.3-2.3-1-2.3-2.3zm.9 9.3h2.9v28.7H287V33.5zM322.8 44.3v17.9h-2.9V44.3c0-5.3-3-8.7-8.4-8.7s-10 3.7-10 11.4v15.2h-2.9V33.5h2.9V39c2.2-4.2 5.8-6.1 10.2-6.1 6.8 0 11.1 4.5 11.1 11.4zM358.8 22v40.2H356v-6.7c-2.3 4.4-6.7 7.3-12.3 7.3-8.2 0-14.8-6.5-14.8-15s6.6-15 14.8-15c5.5 0 9.9 2.9 12.3 7.3V22h2.8zM356 47.9c0-6.8-5.3-12.2-12.1-12.2s-12.1 5.4-12.1 12.2 5.3 12.2 12.1 12.2S356 54.7 356 47.9zM366.7 24.2c0-1.2 1-2.2 2.3-2.2s2.3 1 2.3 2.2-1 2.3-2.3 2.3-2.3-1-2.3-2.3zm.9 9.3h2.9v28.7h-2.9V33.5zM407.2 33.5v28.7h-2.9v-6.5c-2.4 4.3-6.8 7.1-12.3 7.1-8.1 0-14.8-6.5-14.8-15s6.7-15 14.8-15c5.5 0 9.9 2.8 12.3 7.1v-6.5l2.9.1zm-2.9 14.4c0-6.8-5.2-12.2-12-12.2s-12.1 5.4-12.1 12.2 5.3 12.2 12.1 12.2 12-5.4 12-12.2z"></path><g><path class="st0" d="m118.2 83.4-.9-2.3h-4.5l-.9 2.3h-1l3.6-9.5h1l3.6 9.5h-.9zm-5.1-3.3h3.8L115 75l-1.9 5.1zM130.1 82.6c-.6.6-1.5.9-2.5.9-1.1 0-1.9-.3-2.6-.9-.6-.6-1-1.4-1-2.5v-6.3h.9v6.3c0 .8.2 1.4.7 1.8s1.1.7 1.9.7c.8 0 1.4-.2 1.9-.7.4-.4.7-1 .7-1.8v-6.3h.9v6.3c.1 1.1-.2 1.9-.9 2.5zM143.2 73.9v.9h-2.9v8.6h-.9v-8.6h-2.9v-.9h6.7zM154.7 73.9h.9v9.5h-.9V79h-5.2v4.4h-.9v-9.5h.9V78h5.2v-4.1zM162.8 82.5h4.6v.9h-5.6v-9.5h5.5v.9h-4.5v3.4h4.2v.8h-4.2v3.5zM179.3 73.9h1v9.5h-.8l-5.3-7.7v7.7h-1v-9.5h.8l5.3 7.7v-7.7zM192.4 73.9v.9h-2.9v8.6h-1v-8.6h-2.9v-.9h6.8zM197.8 73.9h1v9.5h-1v-9.5zM209.5 83.5c-1.4 0-2.6-.5-3.6-1.4s-1.4-2.1-1.4-3.5.5-2.5 1.4-3.5c.9-.9 2.1-1.4 3.6-1.4.9 0 1.7.2 2.4.6s1.3 1 1.7 1.7l-.8.5c-.3-.6-.7-1-1.3-1.4-.6-.3-1.2-.5-1.9-.5-1.2 0-2.1.4-2.9 1.1s-1.1 1.7-1.1 2.8.4 2.1 1.1 2.8 1.7 1.1 2.9 1.1c.7 0 1.4-.2 1.9-.5.6-.3 1-.8 1.3-1.4l.8.5c-.4.7-1 1.3-1.7 1.7-.7.6-1.5.8-2.4.8zM219.8 83.3c-.1.1-.3.2-.5.2s-.4-.1-.5-.2-.2-.3-.2-.5.1-.4.2-.5.3-.2.5-.2.4.1.5.2.2.3.2.5 0 .3-.2.5zM229.8 83.5c-1.4 0-2.6-.5-3.6-1.4s-1.4-2.1-1.4-3.5.5-2.5 1.4-3.5c.9-.9 2.1-1.4 3.6-1.4.9 0 1.7.2 2.4.6s1.3 1 1.7 1.7l-.8.5c-.3-.6-.7-1-1.3-1.4-.6-.3-1.2-.5-1.9-.5-1.2 0-2.1.4-2.9 1.1s-1.1 1.7-1.1 2.8.4 2.1 1.1 2.8 1.7 1.1 2.9 1.1c.7 0 1.4-.2 1.9-.5.6-.3 1-.8 1.3-1.4l.8.5c-.4.7-1 1.3-1.7 1.7-.8.6-1.6.8-2.4.8zM245.4 82.6c-.6.6-1.5.9-2.5.9s-1.9-.3-2.5-.9c-.6-.6-1-1.4-1-2.5v-6.3h1v6.3c0 .8.2 1.4.7 1.8.5.4 1.1.7 1.9.7s1.5-.2 1.9-.7c.5-.4.7-1 .7-1.8v-6.3h1v6.3c-.2 1.1-.5 1.9-1.2 2.5zM258.3 83.4l-2.2-3.8h-2.7v3.8h-1v-9.5h3.8c.8 0 1.5.3 2 .8.6.6.8 1.2.8 2 0 .6-.2 1.2-.6 1.7-.4.5-.9.8-1.5 1l2.3 3.9-.9.1zm-4.8-8.6v3.9h2.9c.5 0 1-.2 1.3-.6s.6-.8.6-1.4-.2-1-.6-1.4-.8-.6-1.3-.6l-2.9.1zM271.2 83.4l-.9-2.3h-4.5l-.9 2.3h-1l3.6-9.5h1l3.6 9.5h-.9zm-5.1-3.3h3.8L268 75l-1.9 5.1zM282.8 73.9v.9h-2.9v8.6h-1v-8.6H276v-.9h6.8zM289.1 82.5h4.6v.9h-5.6v-9.5h5.5v.9h-4.5v3.4h4.2v.8h-4.2v3.5zM303.1 73.9c1.3 0 2.4.5 3.2 1.4s1.3 2 1.3 3.4-.4 2.4-1.3 3.4c-.9.9-1.9 1.4-3.2 1.4h-3.7V74h3.7zm0 8.6c1 0 1.9-.4 2.6-1.1s1-1.6 1-2.7-.3-2-1-2.7-1.5-1.1-2.6-1.1h-2.7v7.7l2.7-.1zM313.6 83.3c-.1.1-.3.2-.5.2s-.4-.1-.5-.2-.2-.3-.2-.5.1-.4.2-.5.3-.2.5-.2.4.1.5.2.2.3.2.5 0 .3-.2.5zM325.9 73.9h1v9.5h-1V79h-5.2v4.4h-1v-9.5h1V78h5.2v-4.1zM334.1 82.5h4.6v.9h-5.6v-9.5h5.5v.9h-4.5v3.4h4.2v.8h-4.2v3.5zM350.2 83.4l-2.2-3.8h-2.7v3.8h-1v-9.5h3.8c.8 0 1.5.3 2 .8.6.6.8 1.2.8 2 0 .6-.2 1.2-.6 1.7-.4.5-.9.8-1.5 1l2.3 3.9-.9.1zm-4.9-8.6v3.9h2.9c.5 0 1-.2 1.3-.6s.6-.8.6-1.4-.2-1-.6-1.4-.8-.6-1.3-.6l-2.9.1zM356.7 73.9h1v9.5h-1v-9.5zM369.9 73.9v.9H367v8.6h-1v-8.6h-2.9v-.9h6.8zM380.9 83.4l-.9-2.3h-4.5l-.9 2.3h-1l3.6-9.5h1l3.6 9.5h-.9zm-5-3.3h3.8l-1.9-5.1-1.9 5.1zM396 78.9v.5c0 1.2-.4 2.2-1.3 3s-2 1.2-3.4 1.2-2.6-.5-3.6-1.4-1.4-2.1-1.4-3.5.5-2.5 1.4-3.5c.9-.9 2.1-1.4 3.6-1.4.9 0 1.7.2 2.4.6s1.3 1 1.7 1.7l-.8.5c-.3-.6-.7-1-1.3-1.4-.6-.3-1.2-.5-1.9-.5-1.2 0-2.1.4-2.9 1.1-.8.8-1.1 1.7-1.1 2.8s.4 2.1 1.1 2.8c.8.8 1.7 1.1 2.9 1.1 1.1 0 1.9-.3 2.6-.8.6-.5 1-1.2 1.1-2.1h-3.8v-.9l4.7.2zM402.6 82.5h4.6v.9h-5.6v-9.5h5.5v.9h-4.5v3.4h4.2v.8h-4.2v3.5z"></path></g><g><path class="st0" d="M69.9 92.8H32.7c-.4 0-.6-.3-.6-.6v-6.4c0-.4.3-.6.6-.6h10.8v-3.6H21.7c-.4 0-.6-.3-.6-.6V58.9h-3.7v10.9c0 .4-.3.6-.6.6h-6.4c-.4 0-.6-.3-.6-.6V32.6c0-.4.3-.6.6-.6h6.4c.4 0 .6.3.6.6v10.9H21V21.6c0-.4.3-.6.6-.6h21.8v-3.6H32.7c-.4 0-.6-.3-.6-.6v-6.4c0-.4.3-.6.6-.6h37.2c.4 0 .6.3.6.6v6.4c0 .4-.3.6-.6.6H59V21h21.9c.4 0 .6.3.6.6v21.9h3.6V32.6c0-.4.3-.6.6-.6h6.4c.4 0 .6.3.6.6v37.2c0 .4-.3.6-.6.6h-6.4c-.4 0-.6-.3-.6-.6V58.9h-3.6v21.9c0 .4-.3.6-.6.6H59V85h10.9c.4 0 .6.3.6.6V92c0 .5-.3.8-.6.8zm-36.6-1.3h35.9v-5.2H58.4c-.4 0-.6-.3-.6-.6v-4.9c0-.4.3-.6.6-.6h21.9V58.3c0-.4.3-.6.6-.6h4.9c.4 0 .6.3.6.6v10.9h5.2v-36h-5.2v10.9c0 .4-.3.6-.6.6h-4.9c-.4 0-.6-.3-.6-.6V22.2H58.4c-.4 0-.6-.3-.6-.6v-4.9c0-.4.3-.6.6-.6h10.9v-5.2h-36V16h10.9c.4 0 .6.3.6.6v4.9c0 .4-.3.6-.6.6H22.3V44c0 .4-.3.6-.6.6h-4.9c-.4 0-.6-.3-.6-.6V33.2H11v35.9h5.2V58.3c0-.4.3-.6.6-.6h4.9c.4 0 .6.3.6.6v21.9h21.9c.4 0 .6.3.6.6v4.9c0 .4-.3.6-.6.6H33.3v5.2z"></path><path class="st0" d="M51.3 69.3c-10 0-18.1-8.1-18.1-18.1s8.1-18.1 18.1-18.1 18.1 8.1 18.1 18.1-8.1 18.1-18.1 18.1zm0-35c-9.3 0-16.8 7.6-16.8 16.8S42 68 51.3 68s16.8-7.6 16.8-16.8-7.6-16.9-16.8-16.9z"></path><path class="st0" d="M54.7 34.3h-.1c-.4-.1-.6-.4-.5-.8l1.3-6.5-4.1-3.8-4.1 3.8 1.3 6.5c.1.4-.2.7-.5.8-.4.1-.7-.2-.8-.5L45.9 27c0-.2 0-.4.2-.6l4.8-4.4c.2-.2.6-.2.9 0l4.8 4.4c.2.1.2.4.2.6l-1.3 6.8c-.2.3-.5.5-.8.5z"></path><path class="st0" d="M52.2 34.4c-.3 0-.5-.2-.6-.4l-.4-.9-.3.9c-.1.3-.5.5-.8.4-.3-.1-.5-.5-.4-.8l1-2.5c.1-.2.3-.4.6-.4s.5.2.6.4l1 2.5c.1.3 0 .7-.4.8h-.3zM41.4 37c-.2 0-.4-.1-.5-.3L37 30.9c-.1-.2-.1-.4-.1-.6l2.7-5.9c.1-.3.5-.4.8-.3l6.1 2.3c.2.1.4.3.4.5l1.4 6.8c.1.4-.1.7-.5.8-.3.1-.7-.2-.8-.5l-1.3-6.5-5.2-1.9-2.3 5.1 3.6 5.5c.2.3.1.7-.2.9 0-.1-.1-.1-.2-.1z"></path><path class="st0" d="M43.7 36.1c-.4 0-.6-.3-.6-.6l-.1-2.7c0-.3.1-.5.4-.6s.5 0 .7.1l1.9 2c.2.3.2.7 0 .9s-.7.2-.9 0l-.7-.7v1c-.1.3-.3.6-.7.6zM36.5 41.9c-.1 0-.2 0-.4-.1l-5.8-3.9c-.2-.1-.3-.3-.3-.6l.2-6.5c0-.3.3-.6.6-.6l6.5-.2c.3 0 .4.1.6.3l3.9 5.8c.2.3.1.7-.2.9-.3.2-.7.1-.9-.2L37 31.3l-5.6.2V37l5.5 3.7c.3.2.4.6.2.9-.2.2-.4.3-.6.3z"></path><path class="st0" d="M38.3 40.2c-.2 0-.5-.1-.6-.4l-1.1-2.5c-.1-.2-.1-.5.1-.7.2-.2.5-.2.7-.1l2.5 1.1c.3.1.5.5.3.9-.1.3-.5.5-.8.3l-.9-.4.4.9c.1.3 0 .7-.3.9h-.3zM33.8 48.3h-.1l-6.8-1.4c-.2 0-.4-.2-.5-.4l-2.3-6.1c-.1-.3 0-.7.3-.8l5.9-2.7c.2-.1.4-.1.6.1l5.8 3.9c.3.2.4.6.2.9-.2.3-.6.4-.9.2l-5.5-3.6-5.1 2.3 1.9 5.2 6.5 1.3c.3.1.6.4.5.8.1.1-.2.3-.5.3z"></path><path class="st0" d="M34.8 46.1c-.2 0-.3-.1-.4-.2l-2-1.9c-.2-.2-.2-.5-.2-.7s.3-.4.6-.4l2.7.1c.4 0 .6.3.6.7s-.3.6-.6.6h-1l.7.7c.3.2.3.6 0 .9 0 .1-.2.1-.4.2zM27 56.6c-.2 0-.3-.1-.5-.2L22 51.6c-.2-.2-.2-.6 0-.9l4.4-4.8c.2-.2.4-.2.6-.2l6.8 1.3c.3.1.6.4.5.8-.1.4-.4.6-.8.5L27 47l-3.8 4.1 3.8 4.1 6.5-1.3c.3-.1.7.2.8.5.1.4-.2.7-.5.8L27 56.5c.1.1 0 .1 0 .1z"></path><path class="st0" d="M33.9 52.8h-.2l-2.5-1c-.2-.1-.4-.3-.4-.6s.2-.5.4-.6l2.5-1c.3-.1.7 0 .8.4s0 .7-.4.8l-.9.4.9.4c.3.1.5.5.4.8-.1.2-.4.4-.6.4zM30.6 65.5c-.1 0-.2 0-.3-.1l-5.9-2.7c-.3-.1-.4-.5-.3-.8l2.3-6.1c.1-.2.3-.4.5-.4l6.8-1.4c.3-.1.7.1.8.5s-.2.7-.5.8l-6.5 1.3-1.9 5.2 5.1 2.3 5.5-3.6c.3-.2.7-.1.9.2.2.3.1.7-.2.9L31 65.4c-.1.1-.2.1-.4.1z"></path><path class="st0" d="M32.9 59.4c-.3 0-.5-.2-.6-.4-.1-.2 0-.5.2-.7l2-1.9c.3-.2.7-.2.9 0 .2.3.2.7 0 .9l-.7.7h1c.4 0 .7.3.7.6 0 .4-.3.6-.6.7l-2.9.1zM37.5 72.4l-6.5-.2c-.3 0-.6-.3-.6-.6l-.3-6.6c0-.2.1-.4.3-.6l5.8-3.9c.3-.2.7-.1.9.2.2.3.1.7-.2.9l-5.5 3.7.2 5.6 5.6.2 3.7-5.5c.2-.3.6-.4.9-.2.3.2.4.6.2.9l-4 5.8c-.1.2-.3.3-.5.3z"></path><path class="st0" d="M37.2 65.9c-.2 0-.3-.1-.5-.2-.2-.2-.2-.5-.1-.7l1.1-2.5c.1-.3.5-.5.8-.3.3.1.5.5.3.9l-.3.9.9-.4c.3-.1.7 0 .8.3.1.3 0 .7-.3.9l-2.5 1.1h-.2zM40.3 78.4c-.2 0-.5-.1-.6-.4L37 72.1c-.1-.2-.1-.4.1-.6l3.8-5.8c.2-.3.6-.4.9-.2.3.2.4.6.2.9l-3.7 5.5 2.3 5.1 5.2-1.9 1.3-6.5c.1-.4.4-.6.8-.5.4.1.6.4.5.8L47 75.6c0 .2-.2.4-.4.5l-6.1 2.3h-.2z"></path><path class="st0" d="M43.6 70.2c-.1 0-.2 0-.2-.1-.2-.1-.4-.4-.4-.6l.1-2.7c0-.4.3-.6.6-.6.4 0 .6.3.6.7v1l.7-.7c.2-.3.7-.3.9 0 .3.2.3.6 0 .9L44.1 70c-.1.1-.3.2-.5.2z"></path><g><path class="st0" d="M51.3 80.6c-.2 0-.3-.1-.4-.2L46.1 76c-.2-.1-.2-.4-.2-.6l1.3-6.8c.1-.4.4-.6.8-.5.4.1.6.4.5.8l-1.3 6.5 4.1 3.8 4.1-3.8-1.3-6.5c-.1-.4.2-.7.5-.8.3-.1.7.2.8.5l1.3 6.8c0 .2 0 .4-.2.6l-4.8 4.4c-.1.1-.3.2-.4.2z"></path><path class="st0" d="M51.3 71.7c-.3 0-.5-.2-.6-.4l-1-2.5c-.1-.3 0-.7.4-.8.3-.1.7 0 .8.4l.4.9.4-.9c.1-.3.5-.5.8-.4s.5.5.4.8l-1 2.5c-.1.3-.4.4-.6.4z"></path></g><g><path class="st0" d="M62.3 78.4h-.2L56 76.1c-.2-.1-.4-.3-.4-.5l-1.4-6.8c-.1-.4.1-.7.5-.8.4-.1.7.1.8.5l1.3 6.5 5.2 1.9 2.3-5.1-3.6-5.5c-.2-.3-.1-.7.2-.9.3-.2.7-.1.9.2l3.9 5.8c.1.2.1.4.1.6l-3 6c-.1.2-.3.4-.5.4z"></path><path class="st0" d="M58.9 70.2c-.2 0-.3-.1-.5-.2l-1.9-2c-.2-.3-.2-.7 0-.9s.7-.2.9 0l.7.7v-1c0-.4.3-.6.6-.7.4 0 .6.3.7.6l.1 2.7c0 .3-.1.5-.4.6 0 .2-.1.2-.2.2z"></path></g><g><path class="st0" d="M65.1 72.4c-.2 0-.4-.1-.5-.3l-3.9-5.8c-.2-.3-.1-.7.2-.9.3-.2.7-.1.9.2l3.7 5.5 5.6-.2.2-5.6-5.5-3.7c-.3-.2-.4-.6-.2-.9.2-.3.6-.4.9-.2l5.8 3.9c.2.1.3.3.3.6l-.2 6.5c0 .3-.3.6-.6.6l-6.7.3z"></path><path class="st0" d="M65.3 65.9c-.1 0-.2 0-.3-.1l-2.5-1.1c-.3-.1-.5-.5-.3-.9.1-.3.5-.5.9-.3l.9.4-.3-.9c-.1-.3 0-.7.3-.9.3-.1.7 0 .9.3l1.1 2.5c.1.2.1.5-.1.7-.2.2-.4.3-.6.3z"></path></g><g><path class="st0" d="M71.9 65.5c-.1 0-.2 0-.4-.1l-5.8-3.9c-.3-.2-.4-.6-.2-.9.2-.3.6-.4.9-.2l5.5 3.6 5.1-2.3-1.9-5.2-6.5-1.3c-.4-.1-.6-.4-.5-.8.1-.4.4-.6.8-.5l6.8 1.4c.2 0 .4.2.5.4l2.3 6.1c.1.3 0 .7-.3.8l-5.9 2.7c-.2.2-.3.2-.4.2z"></path><path class="st0" d="M69.7 59.4H67c-.4 0-.6-.3-.6-.7s.3-.6.6-.6h1l-.7-.7c-.3-.2-.3-.6 0-.9.2-.3.6-.3.9 0l1.9 1.9c.2.2.2.5.1.7 0 .2-.3.4-.5.3z"></path></g><g><path class="st0" d="M75.6 56.6h-.1l-6.8-1.3c-.4-.1-.6-.4-.5-.8.1-.4.4-.6.8-.5l6.5 1.3 3.8-4.1-3.8-4.1-6.5 1.3c-.3.1-.7-.2-.8-.5-.1-.4.2-.7.5-.8l6.8-1.3c.2 0 .4 0 .6.2l4.4 4.8c.2.2.2.6 0 .9L76 56.4c-.1.1-.2.2-.4.2z"></path><path class="st0" d="M68.7 52.8c-.3 0-.5-.2-.6-.4-.1-.3 0-.7.4-.8l.9-.4-.9-.4c-.3-.1-.5-.5-.4-.8s.5-.5.8-.4l2.5 1c.2.1.4.3.4.6s-.2.5-.4.6l-2.5 1h-.2z"></path></g><g><path class="st0" d="M68.7 48.3c-.3 0-.6-.2-.6-.5-.1-.4.1-.7.5-.8l6.5-1.3 1.9-5.2-5.1-2.3-5.5 3.6c-.3.2-.7.1-.9-.2-.2-.3-.1-.7.2-.9l5.8-3.9c.2-.1.4-.1.6-.1l5.9 2.7c.3.1.4.5.3.8L76 46.3c-.1.2-.3.4-.5.4l-6.8 1.4c.1.2.1.2 0 .2z"></path><path class="st0" d="M67.7 46c-.2 0-.3-.1-.5-.2-.2-.3-.2-.7 0-.9l.7-.7h-1c-.3 0-.6-.3-.7-.6 0-.4.3-.6.6-.7l2.7-.1c.2 0 .5.1.6.4s0 .5-.1.7l-2 1.9c0 .2-.1.2-.3.2z"></path></g><g><path class="st0" d="M66.1 41.9c-.2 0-.4-.1-.5-.3-.2-.3-.1-.7.2-.9l5.5-3.7-.3-5.5-5.6-.2-3.7 5.5c-.2.3-.6.4-.9.2-.3-.2-.4-.6-.2-.9l3.9-5.8c.1-.2.3-.3.6-.3l6.5.2c.3 0 .6.3.6.6l.2 6.5c0 .2-.1.4-.3.6l-5.8 3.9c0 .1-.1.1-.2.1z"></path><path class="st0" d="M64.2 40.2c-.1 0-.2 0-.3-.1-.3-.1-.5-.5-.3-.9l.4-.9-.9.4c-.3.1-.7 0-.9-.3-.1-.3 0-.7.3-.9l2.5-1.1c.2-.1.5-.1.7.1.2.2.2.5.1.7l-1.1 2.5c0 .3-.2.5-.5.5z"></path></g><g><path class="st0" d="M61.1 37c-.1 0-.2 0-.4-.1-.3-.2-.4-.6-.2-.9l3.6-5.5-2.3-5.1-5.2 1.9-1.3 6.5c-.1.4-.4.6-.8.5-.4-.1-.6-.4-.5-.8l1.4-6.8c0-.2.2-.4.4-.5L62 24c.3-.1.7 0 .8.3l2.7 5.9c.1.2.1.4-.1.6l-3.9 5.8c0 .3-.2.4-.4.4z"></path><path class="st0" d="M58.8 36.1c-.4 0-.7-.3-.7-.7v-1l-.7.7c-.2.3-.6.3-.9 0s-.3-.6 0-.9l1.9-1.9c.2-.2.5-.2.7-.1s.4.4.4.6l-.1 2.7c.1.3-.2.6-.6.6z"></path></g><g><path class="st0" d="M51.3 65.5c-.2 0-.3-.1-.5-.2L47 61.5h-5.4c-.4 0-.6-.3-.6-.6v-5.4l-3.8-3.8c-.2-.2-.2-.7 0-.9L41 47v-5.4c0-.4.3-.6.6-.6H47l3.8-3.8c.2-.2.7-.2.9 0l3.8 3.8H61c.4 0 .6.3.6.6V47l3.8 3.8c.2.2.2.7 0 .9l-3.8 3.8v5.4c0 .4-.3.6-.6.6h-5.4l-3.8 3.8c-.2.2-.4.2-.5.2zm-3.4-4.9 3.4 3.4 3.4-3.4.3-.3c.2-.1.4-.1.6 0h4.8v-4.7c-.1-.2-.1-.4-.1-.6s.2-.3.4-.4l3.4-3.4-3.4-3.4-.3-.3c-.1-.2-.1-.4 0-.6v-4.8h-4.7c-.2.1-.4.1-.6.1s-.3-.2-.4-.4l-3.4-3.4-3.4 3.4-.3.3c-.2.1-.4.1-.5 0h-4.8V47.4c-.1.2-.2.3-.4.4l-3.4 3.4 3.4 3.4.3.3c.1.2.1.4 0 .6v4.8H47c.1-.1.3-.1.4 0 .2 0 .4.1.5.3zm3.4-1.4c-1.1 0-2.1-.2-3.1-.6-1.9-.8-3.5-2.4-4.3-4.3-.4-1-.6-2-.6-3.1s.2-2.1.6-3.1c.8-1.9 2.4-3.5 4.3-4.3 1.9-.8 4.2-.8 6.1 0 1.9.8 3.5 2.4 4.3 4.3.4 1 .6 2 .6 3.1s-.2 2.1-.6 3.1c-.8 1.9-2.4 3.5-4.3 4.3-.9.4-1.9.6-3 .6zm0-14.8c-.9 0-1.8.2-2.6.5-1.6.7-3 2-3.6 3.6-.3.8-.5 1.7-.5 2.6s.2 1.8.5 2.6c.7 1.6 2 3 3.6 3.6 1.6.7 3.6.7 5.1 0 1.6-.7 3-2 3.6-3.6.3-.8.5-1.7.5-2.6s-.2-1.8-.5-2.6c-.7-1.6-2-3-3.6-3.6-.8-.3-1.6-.5-2.5-.5z"></path><path class="st0" d="M55.2 61.4c-.2 0-.5-.1-.6-.4l-1.1-2.8c-.1-.3 0-.7.4-.8.3-.1.7 0 .8.4l1.1 2.8c.1.3 0 .7-.4.8h-.2zM48.4 45c-.2 0-.5-.1-.6-.4l-1.1-2.8c-.1-.3 0-.7.4-.8.3-.1.7 0 .8.4l1.1 2.8c.1.3 0 .7-.4.8h-.2zM47.3 61.4c-.1 0-.2 0-.2-.1-.3-.1-.5-.5-.4-.8l1.1-2.8c.1-.3.5-.5.8-.4.3.1.5.5.4.8L47.9 61c-.1.3-.4.4-.6.4zM54.1 45c-.1 0-.2 0-.2-.1-.3-.1-.5-.5-.4-.8l1.1-2.8c.1-.3.5-.5.8-.4.3.1.5.5.4.8l-1.1 2.8c-.1.4-.4.5-.6.5zM41.7 55.8c-.2 0-.5-.1-.6-.4-.1-.3 0-.7.4-.8l2.8-1.1c.3-.1.7 0 .8.4.1.3 0 .7-.4.8l-2.8 1.1h-.2zM58.1 49c-.2 0-.5-.1-.6-.4-.1-.3 0-.7.4-.8l2.8-1.1c.3-.1.7 0 .8.4.1.3 0 .7-.4.8L58.3 49h-.2zM44.5 49c-.1 0-.2 0-.2-.1l-2.8-1.1c-.3-.1-.5-.5-.4-.8.1-.3.5-.5.8-.4l2.8 1.1c.3.1.5.5.4.8-.2.3-.4.5-.6.5zM60.9 55.8c-.1 0-.2 0-.2-.1l-2.8-1.1c-.3-.1-.5-.5-.4-.8.1-.3.5-.5.8-.4l2.8 1.1c.3.1.5.5.4.8-.1.3-.4.5-.6.5z"></path></g><path class="st0" d="M51.3 52.3c-.6 0-1.1-.5-1.1-1.1s.5-1.1 1.1-1.1 1.1.5 1.1 1.1-.5 1.1-1.1 1.1zm0-1.3c-.1 0-.2.1-.2.2 0 .2.4.2.4 0-.1-.1-.1-.2-.2-.2z"></path></g></svg>