<svg width="122" height="70" viewBox="0 0 122 70" fill="none" xmlns="http://www.w3.org/2000/svg">
<path d="M10.5 -0.000488281C9.39543 -0.000488281 8.5 0.894942 8.5 1.99951C8.5 3.10408 9.39543 3.99951 10.5 3.99951V-0.000488281ZM10.5 54.9995C9.39543 54.9995 8.5 55.8949 8.5 56.9995C8.5 58.1041 9.39543 58.9995 10.5 58.9995V54.9995ZM24 42.9995C25.1046 42.9995 26 42.1041 26 40.9995C26 39.8949 25.1046 38.9995 24 38.9995V42.9995ZM7.5 38.9995C6.39543 38.9995 5.5 39.8949 5.5 40.9995C5.5 42.1041 6.39543 42.9995 7.5 42.9995V38.9995ZM31 30.4995C32.1046 30.4995 33 29.6041 33 28.4995C33 27.3949 32.1046 26.4995 31 26.4995V30.4995ZM2 26.4995C0.89543 26.4995 0 27.3949 0 28.4995C0 29.6041 0.89543 30.4995 2 30.4995V26.4995ZM36.5 16.9995C37.6046 16.9995 38.5 16.1041 38.5 14.9995C38.5 13.8949 37.6046 12.9995 36.5 12.9995V16.9995ZM7.5 12.9995C6.39543 12.9995 5.5 13.8949 5.5 14.9995C5.5 16.1041 6.39543 16.9995 7.5 16.9995V12.9995ZM119.113 35.4715L117.5 36.6543L119.113 35.4715ZM104.548 9.12267L106.345 8.24582L104.548 9.12267ZM10.5 3.99951H84.5V-0.000488281H10.5V3.99951ZM86.5 30.4995H114V26.4995H86.5V30.4995ZM112.387 29.6822L117.5 36.6543L120.726 34.2888L115.613 27.3168L112.387 29.6822ZM117.5 36.6543V55.9995H121.5V36.6543H117.5ZM118.5 54.9995H110.5V58.9995H118.5V54.9995ZM85.5 54.9995H45.5V58.9995H85.5V54.9995ZM22 54.9995H10.5V58.9995H22V54.9995ZM115.798 27.6227L106.345 8.24582L102.75 9.99951L112.202 29.3764L115.798 27.6227ZM83.5 2.99951V7.99951H87.5V2.99951H83.5ZM83.5 7.99951V27.4995H87.5V7.99951H83.5ZM102.75 5.99951H85.5V9.99951H102.75V5.99951ZM24 38.9995H7.5V42.9995H24V38.9995ZM31 26.4995H2V30.4995H31V26.4995ZM36.5 12.9995H7.5V16.9995H36.5V12.9995ZM117.5 55.9995C117.5 55.4472 117.948 54.9995 118.5 54.9995V58.9995C120.157 58.9995 121.5 57.6564 121.5 55.9995H117.5ZM117.5 36.6543H121.5C121.5 35.8035 121.229 34.9749 120.726 34.2888L117.5 36.6543ZM86.5 26.4995C87.0523 26.4995 87.5 26.9472 87.5 27.4995H83.5C83.5 29.1564 84.8431 30.4995 86.5 30.4995V26.4995ZM106.345 8.24582C105.675 6.8714 104.28 5.99951 102.75 5.99951V9.99951V9.99951L106.345 8.24582ZM84.5 3.99951C83.9477 3.99951 83.5 3.55179 83.5 2.99951H87.5C87.5 1.34266 86.1569 -0.000488281 84.5 -0.000488281V3.99951Z" fill="#D78030"/>
<circle cx="33" cy="56.9995" r="11" stroke="#D78030" stroke-width="4"/>
<circle cx="98" cy="56.9995" r="11" stroke="#D78030" stroke-width="4"/>
<path d="M42.124 34.9992V24.8174H48.8655V26.5922H44.2767V29.0184H48.4181V30.7932H44.2767V34.9992H42.124Z" fill="#D78030"/>
<path d="M50.3135 34.9992V24.8174H54.3305C55.0995 24.8174 55.7557 24.9549 56.2993 25.23C56.8461 25.5018 57.2621 25.8879 57.5471 26.3884C57.8355 26.8856 57.9797 27.4706 57.9797 28.1434C57.9797 28.8195 57.8338 29.4012 57.5422 29.8884C57.2505 30.3723 56.8279 30.7435 56.2744 31.002C55.7242 31.2606 55.058 31.3898 54.2758 31.3898H51.5862V29.6597H53.9278C54.3388 29.6597 54.6802 29.6034 54.952 29.4907C55.2238 29.378 55.4259 29.209 55.5585 28.9836C55.6944 28.7582 55.7623 28.4781 55.7623 28.1434C55.7623 27.8053 55.6944 27.5203 55.5585 27.2883C55.4259 27.0563 55.2221 26.8806 54.947 26.7613C54.6752 26.6386 54.3322 26.5773 53.9179 26.5773H52.4662V34.9992H50.3135ZM55.8121 30.3657L58.3426 34.9992H55.9662L53.4903 30.3657H55.8121Z" fill="#D78030"/>
<path d="M59.501 34.9992V24.8174H66.3618V26.5922H61.6537V29.0184H66.0088V30.7932H61.6537V33.2243H66.3817V34.9992H59.501Z" fill="#D78030"/>
<path d="M68.0732 34.9992V24.8174H74.934V26.5922H70.2259V29.0184H74.5811V30.7932H70.2259V33.2243H74.9539V34.9992H68.0732Z" fill="#D78030"/>
</svg>
