<svg width="83" height="112" viewBox="0 0 83 112" fill="none" xmlns="http://www.w3.org/2000/svg">
<path d="M2.74257 42.5451L9.04869 49.9476C9.61737 50.6152 9.86549 51.4981 9.72777 52.3642L8.4127 60.6342C8.15863 62.2319 9.2172 63.7433 10.8056 64.0507L19.5677 65.7461C20.4014 65.9074 21.1277 66.4145 21.5664 67.1415L27.7155 77.332C28.5945 78.7886 30.5076 79.2236 31.93 78.2902L39.2238 73.504C40.1637 72.8872 41.3696 72.8477 42.3479 73.4017L51.3276 78.4863C52.7933 79.3162 54.6548 78.7771 55.4502 77.2924L60.6518 67.5828C61.174 66.608 62.1903 65.9995 63.2962 65.9995H71.8545C73.7431 65.9995 75.1619 64.2754 74.7984 62.4222L72.8305 52.3874C72.6581 51.5085 72.8874 50.5986 73.4557 49.9064L80.0654 41.8559C81.1287 40.5607 80.9249 38.6455 79.6127 37.6032L73.83 33.0097C73.0366 32.3795 72.615 31.3913 72.709 30.3823L73.7796 18.8919C73.9298 17.2796 72.7735 15.8391 71.1669 15.637L63.6306 14.6892C62.6827 14.5699 61.8482 14.0064 61.3836 13.1716L56.3906 4.20048C55.6823 2.92774 54.162 2.34772 52.7859 2.82517L41.738 6.65833C41.101 6.87932 40.4082 6.87932 39.7712 6.65833L29.3609 3.04639C27.7259 2.47911 25.9513 3.4091 25.4873 5.07636L23.4147 12.5241C23.0833 13.7152 22.055 14.581 20.8249 14.7048L11.0374 15.6896C9.35209 15.8591 8.14124 17.3894 8.36376 19.0686L9.75755 29.5866C9.87603 30.4806 9.58599 31.3806 8.96773 32.0372L2.84208 38.5431C1.79358 39.6567 1.75072 41.3808 2.74257 42.5451Z" stroke="#D78030" stroke-width="4"/>
<path d="M65 97.3195C65 96.2149 64.1046 95.3195 63 95.3195C61.8954 95.3195 61 96.2149 61 97.3195H65ZM61 79.9995C61 81.1041 61.8954 81.9995 63 81.9995C64.1046 81.9995 65 81.1041 65 79.9995H61ZM60.0263 109.342L59.0527 111.089L60.0263 109.342ZM47.0276 102.098L46.0539 103.845L47.0276 102.098ZM23.8425 109.679L24.6849 111.493L23.8425 109.679ZM19 66.9995V107.865H23V66.9995H19ZM24.6849 111.493L41.5136 103.677L39.8287 100.049L23 107.865L24.6849 111.493ZM46.0539 103.845L59.0527 111.089L61 107.595L48.0012 100.351L46.0539 103.845ZM65 107.595V97.3195H61V107.595H65ZM61 66.9995V79.9995H65V66.9995H61ZM59.0527 111.089C61.7189 112.575 65 110.648 65 107.595H61L61 107.595L59.0527 111.089ZM41.5136 103.677C42.9665 103.002 44.6547 103.065 46.0539 103.845L48.0012 100.351C45.4826 98.9468 42.4438 98.8349 39.8287 100.049L41.5136 103.677ZM19 107.865C19 110.789 22.0336 112.725 24.6849 111.493L23 107.865H23H19Z" fill="#D78030"/>
<circle cx="63" cy="88.9995" r="2" fill="#D78030"/>
<circle cx="42" cy="40.9995" r="22" stroke="#D78030" stroke-width="4"/>
<path d="M41.6065 54.2722V26.9995H43.3537V54.2722H41.6065ZM46.6456 35.7247C46.5462 34.7943 46.1271 34.0698 45.3885 33.5514C44.657 33.0329 43.7053 32.7737 42.5334 32.7737C41.7095 32.7737 41.0028 32.898 40.4134 33.1465C39.8239 33.3951 39.3729 33.7325 39.0604 34.1586C38.7479 34.5847 38.5881 35.0712 38.581 35.6181C38.581 36.0727 38.6839 36.4668 38.8899 36.8006C39.103 37.1345 39.3906 37.4185 39.7528 37.6529C40.1151 37.8802 40.5163 38.072 40.9567 38.2282C41.397 38.3845 41.8409 38.5158 42.2884 38.6224L44.3338 39.1337C45.1577 39.3255 45.9496 39.5847 46.7095 39.9114C47.4766 40.2381 48.1619 40.6501 48.7656 41.1472C49.3764 41.6444 49.8594 42.2445 50.2145 42.9477C50.5696 43.6508 50.7472 44.4747 50.7472 45.4193C50.7472 46.6977 50.4205 47.8234 49.767 48.7964C49.1136 49.7623 48.169 50.5187 46.9332 51.0656C45.7045 51.6053 44.2166 51.8752 42.4695 51.8752C40.772 51.8752 39.2983 51.6124 38.0483 51.0869C36.8054 50.5613 35.8324 49.7943 35.1293 48.7857C34.4332 47.7772 34.0568 46.5485 34 45.0997H37.8885C37.9453 45.8596 38.1797 46.4917 38.5916 46.996C39.0036 47.5002 39.5398 47.8766 40.2003 48.1252C40.8679 48.3738 41.6136 48.4981 42.4375 48.4981C43.2969 48.4981 44.0497 48.3703 44.696 48.1146C45.3494 47.8518 45.8608 47.4896 46.2301 47.0279C46.5994 46.5592 46.7876 46.0123 46.7947 45.3873C46.7876 44.8191 46.6207 44.3504 46.294 43.981C45.9673 43.6046 45.5092 43.2921 44.9197 43.0435C44.3374 42.7879 43.6555 42.5606 42.8743 42.3617L40.392 41.7225C38.5952 41.2609 37.1747 40.5613 36.1307 39.6238C35.0938 38.6792 34.5753 37.4256 34.5753 35.8631C34.5753 34.5776 34.9233 33.4519 35.6193 32.486C36.3224 31.5201 37.2777 30.7708 38.4851 30.2381C39.6925 29.6984 41.0597 29.4285 42.5866 29.4285C44.1349 29.4285 45.4915 29.6984 46.6562 30.2381C47.8281 30.7708 48.7479 31.513 49.4155 32.4647C50.0831 33.4093 50.4276 34.496 50.4489 35.7247H46.6456Z" fill="#D78030"/>
</svg>
