<svg width="103" height="100" viewBox="0 0 103 100" fill="none" xmlns="http://www.w3.org/2000/svg">
<path d="M6.95174 56.898L8.50429 58.7093C10.6069 61.1623 11.5248 64.4156 11.0143 67.6059L10.988 67.7706C10.0493 73.6369 13.9384 79.1886 19.7725 80.3105L20.8608 80.5198C23.9124 81.1067 26.5734 82.9569 28.1862 85.6132L30.6147 89.6131C33.7483 94.7743 40.5322 96.3171 45.5897 93.0187C48.814 90.9159 52.9199 90.7093 56.339 92.4778L58.637 93.6664C64.2023 96.545 71.0357 93.9764 73.3268 88.1446L73.5917 87.4701C75.0205 83.8332 78.5298 81.4415 82.4373 81.4415C88.0598 81.4415 92.4532 76.5869 91.8937 70.9922L91.5086 67.1405C91.2165 64.2197 92.1039 61.3033 93.9734 59.0402L96.6708 55.7749C100.143 51.5712 99.4796 45.334 95.2 41.9554C92.6136 39.9134 91.2378 36.7001 91.5454 33.4191L92.0054 28.5122C92.5254 22.9657 88.5459 18.009 83.018 17.318C79.7663 16.9115 76.9014 14.9836 75.3002 12.1244L73.535 8.97219C70.9346 4.32866 65.3829 2.21278 60.3515 3.94772L54.3926 6.00251C52.0692 6.80371 49.5443 6.80371 47.2209 6.00251L41.9608 4.1887C36.8669 2.43217 31.3452 5.32694 29.8924 10.5157C28.8528 14.2282 25.644 16.924 21.8078 17.3076L20.6151 17.4269C14.429 18.0455 9.98445 23.6638 10.8061 29.8261L11.1249 32.2169C11.5639 35.5097 10.4914 38.8244 8.20684 41.2359L7.31808 42.1741C3.44339 46.264 3.28524 52.6204 6.95174 56.898Z" stroke="#D78030" stroke-width="4"/>
<path d="M53.2144 63.2981V60.9829C53.2144 59.225 53.586 57.61 54.3292 56.138C55.0867 54.6517 56.18 53.4654 57.6091 52.5794C59.0526 51.679 60.8105 51.2288 62.8828 51.2288C64.9837 51.2288 66.7487 51.6718 68.1778 52.5579C69.6213 53.444 70.7075 54.6302 71.4364 56.1166C72.1795 57.5886 72.5511 59.2107 72.5511 60.9829V63.2981C72.5511 65.056 72.1795 66.6781 71.4364 68.1645C70.6932 69.6365 69.5999 70.8156 68.1564 71.7016C66.7129 72.602 64.9551 73.0522 62.8828 73.0522C60.7819 73.0522 59.0169 72.602 57.5877 71.7016C56.1585 70.8156 55.0724 69.6365 54.3292 68.1645C53.586 66.6781 53.2144 65.056 53.2144 63.2981ZM59.4528 60.9829V63.2981C59.4528 64.3128 59.6957 65.2704 60.1816 66.1708C60.6819 67.0711 61.5822 67.5213 62.8828 67.5213C64.1833 67.5213 65.0694 67.0783 65.541 66.1922C66.0269 65.3061 66.2699 64.3414 66.2699 63.2981V60.9829C66.2699 59.9396 66.0412 58.9677 65.5839 58.0674C65.1266 57.167 64.2262 56.7168 62.8828 56.7168C61.5965 56.7168 60.7033 57.167 60.2031 58.0674C59.7029 58.9677 59.4528 59.9396 59.4528 60.9829ZM30.6836 38.1733V35.8581C30.6836 34.0859 31.0623 32.4638 31.8198 30.9918C32.5772 29.5054 33.6706 28.3192 35.0997 27.4331C36.5432 26.547 38.2868 26.104 40.3305 26.104C42.4457 26.104 44.2178 26.547 45.647 27.4331C47.0762 28.3192 48.1623 29.5054 48.9055 30.9918C49.6487 32.4638 50.0203 34.0859 50.0203 35.8581V38.1733C50.0203 39.9455 49.6415 41.5676 48.8841 43.0397C48.1409 44.5117 47.0476 45.6908 45.6041 46.5769C44.1749 47.4486 42.4171 47.8845 40.3305 47.8845C38.2439 47.8845 36.4789 47.4415 35.0354 46.5554C33.6062 45.655 32.5201 44.476 31.7769 43.0182C31.048 41.5462 30.6836 39.9312 30.6836 38.1733ZM36.9648 35.8581V38.1733C36.9648 39.2166 37.2078 40.1813 37.6937 41.0674C38.1939 41.9535 39.0728 42.3965 40.3305 42.3965C41.6453 42.3965 42.5386 41.9535 43.0102 41.0674C43.4961 40.1813 43.7391 39.2166 43.7391 38.1733V35.8581C43.7391 34.8148 43.5104 33.843 43.0531 32.9426C42.5957 32.0422 41.6882 31.592 40.3305 31.592C39.0585 31.592 38.1796 32.0493 37.6937 32.964C37.2078 33.8787 36.9648 34.8434 36.9648 35.8581ZM33.5133 71.5301L63.6974 27.6261H69.314L39.13 71.5301H33.5133Z" fill="#D78030"/>
</svg>
